<svg xmlns="http://www.w3.org/2000/svg" width="735.811" height="800" viewBox="0 0 735.811 800">
  <g id="img_iOS" transform="translate(-3.116 -1.207)">
    <g id="Group_3854" data-name="Group 3854" transform="translate(3.116 1.207)">
      <g id="Group_3851" data-name="Group 3851" transform="translate(0 84.951)">
        <path id="Path_4254" data-name="Path 4254" d="M151.226,80.315A74.055,74.055,0,1,1,77.171,6.26,74.051,74.051,0,0,1,151.226,80.315Z" transform="translate(-3.116 -6.26)" fill="#2ebba9"/>
      </g>
      <g id="Group_3852" data-name="Group 3852" transform="translate(161.729)">
        <circle id="Ellipse_213" data-name="Ellipse 213" cx="23.415" cy="23.415" r="23.415" transform="translate(0)" fill="#2ebba9"/>
      </g>
      <g id="Group_3853" data-name="Group 3853" transform="translate(672.509 736.698)">
        <circle id="Ellipse_214" data-name="Ellipse 214" cx="31.651" cy="31.651" r="31.651" fill="#2ebba9"/>
      </g>
    </g>
    <g id="Group_6638" data-name="Group 6638" transform="translate(25.209 98.086)">
      <g id="Group_6637" data-name="Group 6637" transform="translate(153.766 91.994)">
        <path id="Path_8378" data-name="Path 8378" d="M153.807,205.2c58.027-29.006,114.179-57.068,170.346-85.114,18.009-9,35.929-18.171,54.144-26.733,3.248-1.535,8.429-1.919,11.514-.384q111,55.067,221.686,110.769a21.526,21.526,0,0,1,2.716,2.3c-3.985,2.111-7.543,4.059-11.174,5.875-70.1,35.029-140.159,70.146-210.453,104.821-4.4,2.17-11.529,2.923-15.676.871-71.622-35.427-142.994-71.415-214.409-107.3C160.11,209.113,157.881,207.608,153.807,205.2Z" transform="translate(-153.202 -91.994)" fill="#2ebba9" fill-rule="evenodd"/>
        <path id="Path_8379" data-name="Path 8379" d="M153.766,156.5c34.9-17.226,67.784-33.7,101-49.495,3.262-1.55,8.99.044,12.754,1.875,36.224,17.714,72.168,36.018,108.54,53.436,4.665,2.244,12.222,2.391,16.828.177,36.327-17.492,72.39-35.619,108.275-54.027,7.011-3.6,12.444-3.543,19.411.059,30.925,16,62.16,31.427,94.812,47.842-4.118,2.391-6.835,4.207-9.742,5.654q-105.662,52.853-211.471,105.4c-4.487,2.229-11.676,3.321-15.824,1.284-73.467-36.077-146.654-72.7-219.9-109.234C157.486,158.99,156.615,158.326,153.766,156.5Z" transform="translate(-153.766 97.86)" fill="#2ebba9" fill-rule="evenodd"/>
        <path id="Path_8380" data-name="Path 8380" d="M153.824,165.022c33.42-16.754,65.54-33.11,98-48.757,3.6-1.727,9.8-.605,13.758,1.328q53.849,26.261,107.212,53.48c7.233,3.7,12.828,4.236,20.341.384,35.162-18.1,70.81-35.235,105.987-53.318,7.823-4.015,13.787-3.735,21.478.266,30.231,15.75,60.831,30.777,93.144,46.985-5.2,3.011-8.916,5.432-12.857,7.41Q496.42,225.189,391.777,277.252c-4.163,2.052-10.879,2.819-14.776.886C303.755,241.9,230.76,205.143,157.721,168.476,156.761,167.989,156.053,167.014,153.824,165.022Z" transform="translate(-152.968 228.224)" fill="#2ebba9" fill-rule="evenodd"/>
      </g>
    </g>
  </g>
</svg>
